<svg
  width="100%"
  height="100%"
  viewBox="0 0 234 234"
  fill="none"
  xmlns="http://www.w3.org/2000/svg"
>
  <path
    d="M130.66 170.319L136.229 135.513L98.6387 120.199L93.0698 173.103L130.66 170.319Z"
    fill="#FFB6B6"
  />
  <path
    d="M168.439 221.757C165.212 223.33 161.923 224.751 158.585 226.011C151.909 228.537 145.018 230.443 137.948 231.716C131.039 232.963 123.944 233.596 116.85 233.596C107.267 233.596 97.7382 232.447 88.5233 230.172C84.9149 229.287 81.2755 228.205 77.6979 226.945C77.3228 226.81 76.9418 226.675 76.5667 226.539C72.1283 224.929 67.7636 223.041 63.5651 220.908C62.9994 220.626 62.4339 220.336 61.8684 220.029C61.2414 219.71 60.6205 219.372 59.9934 219.021C59.1942 218.585 58.4012 218.13 57.6082 217.668C54.9526 216.132 52.34 214.472 49.8441 212.745L49.6781 212.634C49.5306 212.53 49.3831 212.431 49.2417 212.327C49.3338 211.841 49.42 211.398 49.4998 211.005C49.8072 209.462 50.0101 208.614 50.0101 208.614L66.8415 173.844L71.532 164.156L73.8188 163.215L91.093 156.115H133.313L146.634 161.623C146.634 161.623 146.702 161.875 146.837 162.361C148.165 167.125 155.911 194.173 167.929 220.638C168.095 221.006 168.267 221.381 168.439 221.757Z"
    fill="currentColor"
  />
  <path
    d="M121.16 146.702C142.331 146.702 159.493 129.54 159.493 108.369C159.493 87.1986 142.331 70.0364 121.16 70.0364C99.9898 70.0364 82.8276 87.1986 82.8276 108.369C82.8276 129.54 99.9898 146.702 121.16 146.702Z"
    fill="#FFB6B6"
  />
  <path
    d="M73.8859 162.885L73.82 163.215L62.1332 218.781L62.032 219.265L61.8692 220.03C61.2403 219.709 60.6201 219.37 59.9955 219.023C59.195 218.583 58.4032 218.13 57.6071 217.668C54.9548 216.133 52.3421 214.471 49.8438 212.746L49.6766 212.632C49.5315 212.531 49.3819 212.43 49.2412 212.328C47.3322 210.996 45.4717 209.606 43.6551 208.172C43.6419 208.163 43.6331 208.154 43.6199 208.141C40.3782 205.528 37.2553 202.718 34.2687 199.731C32.3422 197.805 30.4904 195.821 28.7178 193.784L28.9861 192.658L29.0125 192.544L29.3468 191.11C32.3201 178.552 42.3795 168.915 55.0516 166.487L71.889 163.263L73.8859 162.885Z"
    fill="currentColor"
  />
  <path
    d="M193.268 205.509C188.307 209.732 182.99 213.556 177.377 216.913C176.83 217.245 176.271 217.57 175.712 217.896C173.326 219.273 170.898 220.558 168.439 221.757C165.212 223.33 161.923 224.751 158.585 226.011L158.327 224.793L145.128 162.035L146.837 162.361L163.964 165.643C176.634 168.072 186.697 177.711 189.666 190.27L192.943 204.144L193.268 205.509Z"
    fill="currentColor"
  />
  <path
    d="M165.304 118.616C164.308 122.329 159.298 138.921 146.468 142.413C143.948 143.101 137.936 143.894 139.528 142.413C139.891 142.075 140.241 141.743 140.592 141.417C154.515 128.323 160.195 120.319 157.601 102.553C155.954 91.2417 137.192 80.9695 126.637 79.949C122.186 79.5191 116.506 81.0247 112.756 84.9041C106.566 91.297 107.586 110.92 104.156 122.446C103.234 125.532 101.998 128.04 100.222 129.558C99.1152 130.505 98.4083 129.3 97.8857 127.327C96.7731 123.134 96.4842 115.457 94.9043 117.626C90.3369 123.915 94.6891 132.251 96.0047 135.466C96.2752 136.124 96.5518 136.757 96.8284 137.36V137.366C96.9882 137.71 97.1542 138.054 97.314 138.38V138.386C101.703 147.336 106.978 150.539 111.625 156.115C113.451 158.297 115.178 160.836 116.721 164.23C117.779 166.554 118.541 168.889 119.063 171.182C121.725 182.678 118.566 193.122 117.711 195.962C115.922 201.876 112.848 212.037 103.83 217.773C92.5067 224.978 82.1731 218.628 77.2306 225.47C77.1691 225.55 77.1137 225.629 77.0585 225.709C76.874 225.986 76.7081 226.263 76.5667 226.539C72.1283 224.929 67.7636 223.041 63.5651 220.908C62.9994 220.626 62.4339 220.336 61.8684 220.029C61.2414 219.71 60.6205 219.372 59.9934 219.021C59.9688 218.541 59.9442 218.062 59.9257 217.577C59.5631 209.259 60.1102 200.118 62.1819 191.001C63.5097 185.18 64.8253 179.407 66.8415 173.844C68.1571 170.217 69.7677 166.676 71.8885 163.264C73.5853 160.523 75.6015 157.861 78.0481 155.303C83.4211 149.691 88.1976 147.349 88.9537 141.423C90.0355 132.964 81.2264 130.419 78.0481 117.626C75.8783 108.879 73.6098 96.2706 75.8106 87.7748C77.8885 79.7466 79.6957 72.7816 85.7263 65.9577C87.177 64.3224 99.0845 52.9497 112.879 51.0809C119.235 50.2267 124.903 58.3659 132.588 60.1177C141.421 62.1282 146.481 63.2778 151.423 67.0581C159.777 73.439 162.132 82.98 164.314 91.8444C166.023 98.7788 168.236 107.748 165.304 118.616Z"
    fill="#2F2E41"
  />
</svg>
