<svg
  width="100%"
  height="100%"
  viewBox="0 0 234 234"
  fill="none"
  xmlns="http://www.w3.org/2000/svg"
>
  <g clipPath="url(#clip_male)">
    <path
      d="M119.094 152.752C140.07 152.752 157.074 135.748 157.074 114.772C157.074 93.7957 140.07 76.7913 119.094 76.7913C98.1178 76.7913 81.1133 93.7957 81.1133 114.772C81.1133 135.748 98.1178 152.752 119.094 152.752Z"
      fill="#FFB6B6"
    />
    <path
      d="M97.2904 158.369L95.5746 141.024L129.839 134.617L150.072 183.88L114.884 224.346L89.813 175.083L97.2904 158.369Z"
      fill="#FFB6B6"
    />
    <path
      d="M95.0242 149.706L102.515 151.399C102.515 151.399 96.6265 132.725 98.6253 130.942C100.624 129.159 105.522 131.969 105.522 131.969L110.669 137.739L116.939 131.356C116.939 131.356 123.746 122.892 126.411 120.515C129.076 118.138 124.795 109.315 124.795 109.315C124.795 109.315 164.334 98.6536 149.621 79.4759C149.621 79.4759 140.995 64.4399 138.186 69.338C135.377 74.2361 132.028 66.4569 132.028 66.4569L121.8 68.4019C121.8 68.4019 101.613 56.4994 82.4536 81.9623C63.2942 107.425 95.0242 149.706 95.0242 149.706Z"
      fill="#2F2E41"
    />
    <path
      d="M190.525 208.027C169.769 224.856 144.09 234 117 234C92.2626 234 68.6999 226.373 48.9902 212.236C49.0254 211.867 49.0606 211.502 49.0914 211.137C49.6148 205.419 50.0811 199.859 50.389 195.249C51.581 177.352 93.3359 165.423 93.3359 165.423C93.3359 165.423 93.525 165.612 93.9033 165.942C96.2081 167.965 105.564 175.302 121.97 177.352C136.599 179.182 141.416 170.503 142.872 166.347C143.312 165.08 143.444 164.231 143.444 164.231L186.39 184.513C189.192 188.515 190.288 197.136 190.503 206.826C190.512 207.226 190.521 207.622 190.525 208.027Z"
      fill="currentColor"
    />
  </g>
  <defs>
    <clipPath id="clip_male">
      <rect width="234" height="234" rx="117" fill="white" />
    </clipPath>
  </defs>
</svg>
