<svg width="13" height="12" viewBox="0 0 13 12" fill="none" xmlns="http://www.w3.org/2000/svg">
<path d="M6.40052 0C6.76802 0 7.10552 0.2025 7.28052 0.525L12.6805 10.525C12.848 10.835 12.8405 11.21 12.6605 11.5125C12.4805 11.815 12.153 12 11.8005 12H1.00052C0.648017 12 0.320516 11.815 0.140516 11.5125C-0.0394836 11.21 -0.0469834 10.835 0.120517 10.525L5.52052 0.525C5.69552 0.2025 6.03302 0 6.40052 0ZM6.40052 8.8C5.95802 8.8 5.60052 9.1575 5.60052 9.6C5.60052 10.0425 5.95802 10.4 6.40052 10.4C6.84302 10.4 7.20052 10.0425 7.20052 9.6C7.20052 9.1575 6.84302 8.8 6.40052 8.8ZM6.40052 4C5.94552 4 5.58302 4.3875 5.61552 4.8425L5.80052 7.4425C5.82302 7.755 6.08552 8 6.39802 8C6.71302 8 6.97302 7.7575 6.99552 7.4425L7.18052 4.8425C7.21302 4.3875 6.85302 4 6.39552 4H6.40052Z" fill="currentColor"/>
</svg>
