<svg width="11" height="12" viewBox="0 0 11 12" fill="none" xmlns="http://www.w3.org/2000/svg">
<path d="M10.7875 1.40663C11.1112 1.04237 11.0596 0.501342 10.6701 0.198688C10.2805 -0.103966 9.70194 -0.0557555 9.37828 0.3085L5.5 4.66082L1.62172 0.3085C1.29806 -0.0557555 0.719466 -0.103966 0.32992 0.198688C-0.0596265 0.501342 -0.111184 1.04237 0.212483 1.40663L4.30558 6L0.212483 10.5934C-0.111184 10.9576 -0.0596265 11.4987 0.32992 11.8013C0.719466 12.104 1.29806 12.0558 1.62172 11.6915L5.5 7.33918L9.37828 11.6915C9.70194 12.0558 10.2805 12.104 10.6701 11.8013C11.0596 11.4987 11.1112 10.9576 10.7875 10.5934L6.69442 6L10.7875 1.40663Z" fill="currentColor"/>
</svg>
